<svg width="20" height="20" viewBox="0 0 20 20" fill="none" xmlns="http://www.w3.org/2000/svg"><rect width="20" height="20" rx="4" fill="#672EE3"/><path d="M4.34312 9.07107C4.73364 8.68054 5.36681 8.68054 5.75733 9.07107L9.29286 12.6066C9.68339 12.9971 9.68339 13.6303 9.29286 14.0208C8.90234 14.4113 8.26917 14.4113 7.87865 14.0208L4.34312 10.4853C3.95259 10.0948 3.95259 9.46159 4.34312 9.07107Z" fill="#D9D9D9"/><path d="M7.87865 14.0208C7.48813 13.6303 7.48813 12.9971 7.87865 12.6066L14.2426 6.24264C14.6331 5.85212 15.2663 5.85212 15.6568 6.24264C16.0473 6.63316 16.0473 7.26633 15.6568 7.65685L9.29286 14.0208C8.90234 14.4113 8.26917 14.4113 7.87865 14.0208Z" fill="#D9D9D9"/></svg>
